<?xml version="1.0" encoding="UTF-8"?>
<svg width="106px" height="48px" viewBox="0 0 106 48" version="1.1" xmlns="http://www.w3.org/2000/svg" xmlns:xlink="http://www.w3.org/1999/xlink">
    <title>新史學LOGO 2-o</title>
    <g id="web" stroke="none" stroke-width="1" fill="none" fill-rule="evenodd">
        <g id="01首頁" transform="translate(-217.000000, -17.000000)" fill="#000000" fill-rule="nonzero">
            <g id="Header" transform="translate(-1.000000, 17.762238)">
                <g id="新史學LOGO-2-o" transform="translate(218.000000, 0.000000)">
                    <path d="M89.8171405,5.1274824 C90.3836135,5.01933088 90.6721941,5.23563391 90.8218285,5.61416421 C90.982151,6.02513996 91.0997209,6.45774601 91.2493553,6.89035207 C91.3883015,7.29051267 91.5806885,7.67985812 91.6768821,8.10164902 C91.8799573,8.95604598 92.050968,9.83207324 92.1899142,10.6972853 C92.2433551,11.0001096 92.1257852,11.3353793 92.1364734,11.6490187 C92.1578497,12.0491793 92.2540432,12.4385247 92.2647314,12.8278702 C92.2754196,13.1847702 92.2433551,13.5416702 92.1685379,13.887755 C92.050968,14.4825883 92.2006024,14.7962277 92.7777636,14.8719338 C93.1625377,14.9260095 93.5793763,14.8935641 93.9748386,14.8286732 C94.7657632,14.6880762 95.5566878,14.5042186 96.3369242,14.2987308 C96.5399994,14.244655 96.7858273,14.0824277 96.8606445,13.9093853 C96.9461499,13.7038974 96.7216983,13.5416702 96.5293112,13.4118883 C96.2514188,13.2280308 96.2941715,12.9035762 96.6361929,12.7737944 C97.2988595,12.5358611 97.5874401,12.0383641 97.7050099,11.389455 C97.7905153,10.9135884 97.5019347,10.5675035 96.9889025,10.599949 C96.7110101,10.6215793 96.2193543,10.2538641 96.1445371,9.97267021 C96.0269672,9.51843385 95.9414619,9.05338234 95.8025157,8.59914598 C95.759763,8.45854902 95.6101286,8.3287672 95.5032469,8.22061569 C95.4070534,8.12327932 95.257419,8.05838842 95.1719136,7.9502369 C95.0970965,7.87453084 95.0757201,7.74474903 95.0329674,7.64741266 C95.1505373,7.61496721 95.2681072,7.5500763 95.385677,7.56089145 C95.6528813,7.58252176 95.9200855,7.65822782 96.197978,7.69067327 C96.7537628,7.75556418 97.0850961,8.20980053 97.0316552,8.78300356 C97.0102789,9.06419749 97.0744079,9.36702173 97.1492251,9.63740051 C97.2454186,9.9294096 97.5660637,10.0051157 97.7263863,9.74555203 C97.897397,9.45354294 97.9722142,9.09664295 98.0577195,8.76137325 C98.1539131,8.36121265 98.1859776,7.9502369 98.3035474,7.56089145 C98.5386872,6.79301571 98.3035474,5.9278036 97.3843648,5.75476118 C97.0530316,5.68987027 96.8820208,5.49519754 96.764451,5.18155815 C96.6255048,4.80302786 96.2941715,4.68406119 95.8987092,4.81384301 C95.5673759,4.92199452 95.257419,5.06259149 95.0329674,5.35460057 C94.819204,5.63579451 94.3916772,5.71150057 94.2847955,6.14410662 C94.2206665,6.42530056 94.124473,6.69567934 94.3703009,6.92279752 C94.8512685,7.36621873 94.6161288,7.91779145 94.6054406,8.43691871 C94.6054406,8.83707931 94.562688,9.23723991 94.5413116,9.63740051 C94.5199353,9.94022475 94.4878708,10.2538641 94.4878708,10.5566884 C94.4771826,10.9460338 94.5092471,11.3353793 94.4878708,11.7247247 C94.4664944,12.1573308 94.4344299,12.5899368 94.3382364,13.0009126 C94.31686,13.1198793 94.0496558,13.2712914 93.9320859,13.2496611 C93.7931397,13.2172156 93.622129,13.0225429 93.5900645,12.8819459 C93.5152473,12.4709702 93.5045591,12.0491793 93.4831828,11.6273884 C93.4831828,11.5733126 93.5045591,11.5192369 93.4831828,11.4651611 C93.0984087,10.5026126 93.4190538,9.54006415 93.4831828,8.57751568 C93.5152473,8.11246417 93.4511183,7.64741266 93.4404301,7.171546 C93.4297419,6.71730965 93.3869893,6.25225814 93.4297419,5.79802178 C93.493871,5.15992785 92.9273979,4.75976725 92.3288604,4.92199452 C92.2326669,4.95443997 92.1044089,4.95443997 92.0082153,4.93280967 C91.9120218,4.90036422 91.7516993,4.81384301 91.7516993,4.7489521 C91.7516993,4.64080058 91.8265164,4.44612786 91.9120218,4.42449756 C92.7777636,4.17574908 93.5900645,3.65662181 94.5840643,4.08922787 C95.1505373,4.33797635 95.8345802,4.11085817 96.4331177,3.87292484 C96.5399994,3.82966423 96.5827521,3.5917309 96.6148166,3.44031878 C96.6575693,3.22401576 96.7003219,2.98608243 96.6896338,2.7697794 C96.6468811,2.22902183 96.8606445,1.65581881 96.4651822,1.17995215 C96.3689887,1.07180064 96.2086661,0.95283397 96.0697199,0.95283397 C95.8773329,0.95283397 95.6528813,1.08261579 95.5887523,0.7906067 C95.5246233,0.509412764 95.5780641,0.206588526 95.8773329,0.120067315 C96.6148166,-0.0854205607 97.3736767,-0.0313448039 98.0577195,0.31474004 C98.527999,0.55267337 98.7631388,1.169137 98.592128,1.67744911 C98.4104291,2.21820668 98.8165796,2.82385516 99.4364935,2.7914097 C99.8319558,2.7697794 100.270171,2.96445212 100.644257,3.15912485 C101.3283,3.52683999 101.980278,3.39705818 102.632256,3.12667939 C102.974278,2.98608243 103.305611,2.84548546 103.305611,2.3479885 C103.305611,2.23983698 103.636944,2.05597941 103.807955,2.05597941 C104.513374,2.06679456 105.176041,2.26146729 105.699761,2.7697794 C105.902836,2.96445212 105.828019,3.36461272 105.560815,3.40787333 C104.630944,3.5484703 104.609568,4.31634604 104.470622,4.97607028 C104.320987,5.68987027 104.224794,6.41448541 104.139288,7.1282854 C104.085847,7.63659751 104.085847,8.14490963 104.053783,8.65322174 C104.043095,8.78300356 104.075159,8.93441568 104.021718,9.05338234 C103.754514,9.63740051 103.786579,10.243049 103.786579,10.8703278 C103.786579,11.389455 103.711761,11.8977671 103.636944,12.4168944 C103.572815,12.8495005 103.786579,13.0009126 104.160665,13.0658035 C104.566815,13.1415096 104.972966,13.2604762 105.389804,13.3253671 C105.892148,13.4118883 105.88146,13.8444944 105.966965,14.2013944 C106.095223,14.7962277 105.849395,15.0774217 105.24017,15.0882368 C105.047783,15.0882368 104.855396,15.1314974 104.663009,15.1639429 C104.021718,15.2937247 103.391116,15.4451368 102.749826,15.5641035 C102.129912,15.672255 101.777203,15.9967095 101.648945,16.6131731 C101.574127,16.9700731 101.38174,17.2080065 101.071783,17.4134943 C100.462558,17.8244701 99.7357622,18.0948489 99.3509881,18.8086489 C99.2227301,19.035767 99.1372247,19.2196246 99.2227301,19.5008186 C99.4792461,20.2795095 99.7785149,20.603964 100.761827,20.6796701 C101.61688,20.744561 102.429181,20.5823337 103.262858,20.4958125 C104.053783,20.4092913 104.908836,20.9284185 105.058471,21.6854791 C105.090535,21.8585216 105.058471,22.1289003 104.951589,22.2370519 C104.844707,22.3343882 104.588191,22.3343882 104.406493,22.3019428 C103.540751,22.1289003 102.685697,21.8693367 101.809267,21.7395549 C101.371052,21.674664 100.900773,21.8044458 100.45187,21.890967 C100.355676,21.9125973 100.21673,22.0964549 100.206042,22.2046064 C100.163289,22.9292215 100.173977,23.6538367 100.109848,24.3784518 C100.045719,25.178773 99.9067729,25.9790942 99.8212676,26.7794154 C99.7785149,27.1471306 99.7678267,27.5256609 99.7143859,27.893376 C99.532687,29.2452699 99.1799774,29.3317911 98.1218486,29.3966821 C97.5981282,29.4291275 97.0637197,29.3317911 96.5399994,29.3317911 C96.3155478,29.3317911 96.0804081,29.4507578 95.8559565,29.5156487 C95.8345802,29.5264639 95.8132038,29.5480942 95.7918275,29.5480942 C95.257419,29.5805396 94.7336987,29.6238002 94.1992902,29.6346154 C93.8572687,29.6346154 93.3014839,29.1479336 93.2266667,28.7910336 C93.2052904,28.6828821 93.2159785,28.4990245 93.2907957,28.4557639 C93.4190538,28.3692427 93.622129,28.2827215 93.7396989,28.3367972 C94.4130536,28.6396215 95.0864083,28.4341336 95.759763,28.4125033 C96.6148166,28.3800578 97.1492251,27.7311487 97.8225798,27.3634336 C98.2394184,27.1471306 98.2394184,26.6280033 98.3569883,26.2170276 C98.527999,25.6438245 98.7310742,25.0598064 98.8272678,24.4757882 C98.9234613,23.8485094 99.2227301,23.2536761 99.094472,22.5831367 C98.9982785,22.0856397 98.6776334,21.8368913 98.1752894,21.9558579 C97.0316552,22.247867 95.8559565,22.4749852 94.7443868,22.8643306 C93.8252042,23.17797 92.9701506,23.6862821 92.0937207,24.108073 C91.7730756,24.2594852 91.4738068,24.464973 91.0997209,24.3027458 C91.04628,24.2811155 90.9500865,24.2703003 90.9073338,24.3027458 C90.4049898,24.5731245 89.9453985,24.2594852 89.475119,24.1837791 C89.3575492,24.1621488 89.1758503,23.9242155 89.1758503,23.7836185 C89.1758503,23.53487 89.3896137,23.4483488 89.6354416,23.4807943 C90.4904952,23.5997609 91.3241725,23.4483488 92.1471615,23.2104155 C92.3823013,23.1347094 92.5640002,22.8643306 92.7991399,22.7778094 C93.686258,22.4533549 94.5947525,22.1505306 95.4925587,21.8693367 C96.3583005,21.5989579 97.2454186,21.3610246 98.1218486,21.101461 C98.1432249,21.0906458 98.1752894,21.0690155 98.1859776,21.0690155 C98.5173108,21.1663519 98.7631388,21.0365701 98.7310742,20.6904852 C98.6883216,20.1605428 98.3463001,19.9334246 97.8760206,20.030761 C97.7370744,20.0523913 97.5767519,20.0091307 97.4378057,19.9442398 C97.3843648,19.9117943 97.330924,19.749567 97.3629885,19.673861 C97.5553755,19.0790277 97.3202358,18.7653883 96.7323865,18.7004974 C95.823892,18.5923458 95.4070534,19.1439186 95.0222793,19.8252731 C94.755075,20.3011398 94.4023654,20.7229307 93.8145161,20.8310822 C93.7290107,20.8527125 93.6114408,20.8527125 93.5366236,20.8094519 C93.0449678,20.5498882 92.8312044,19.3710367 93.2373549,19.0033216 C93.7290107,18.5490852 93.9427741,17.9542519 94.1458493,17.3486034 C94.2741074,16.9700731 93.9962149,16.7321398 93.8786451,16.4293156 C93.7610752,16.104861 93.493871,16.0940459 93.2052904,16.0399701 C92.7670754,15.9534489 92.2861078,16.0399701 91.92271,15.6289944 C91.7837638,15.4667671 91.4951832,15.4343216 91.2279789,15.3261701 C91.356237,15.1639429 91.4417423,15.0557913 91.5379359,14.9368247 C91.4951832,14.8394883 91.4417423,14.742152 91.3883015,14.6448156 C91.3455488,14.6448156 91.3134843,14.6340004 91.3134843,14.6448156 C91.0249037,15.2720944 90.7149468,15.8777429 90.4691189,16.5158368 C90.2446673,17.0890398 89.9988394,17.6838731 89.9347104,18.2895216 C89.849205,19.0682125 89.2506675,19.3602216 88.7910762,19.7820125 C88.6414418,19.9226095 88.2566677,19.9442398 88.085657,19.8469034 C87.9360226,19.7603822 87.9039581,19.4142973 87.8932699,19.1871792 C87.8825817,18.9276155 87.9253344,18.6572368 88.0215279,18.4084883 C88.149786,18.0515883 88.342173,17.7271337 88.5024956,17.391864 C88.6093773,17.1539307 88.7055708,16.9159974 88.8338288,16.6888792 C88.9513987,16.4833913 89.1117213,16.2995338 89.2292911,16.0940459 C89.4430545,15.7155156 89.6354416,15.3369853 89.8598932,14.958455 C90.0629684,14.601555 90.2767318,14.2554701 90.5118715,13.9202005 C90.8004521,13.530855 90.8004521,13.0658035 90.789764,12.6331974 C90.7683876,12.1248853 90.5760006,11.6273884 90.5225597,11.1190763 C90.4904952,10.7838066 90.5866887,10.4377217 90.6187532,10.0916369 C90.6294414,9.89696415 90.6294414,9.70229142 90.6187532,9.5076187 C90.6187532,9.37783688 90.5866887,9.23723991 90.5866887,9.1074581 C90.5866887,8.63159144 90.5653124,8.15572478 90.5866887,7.67985812 C90.6080651,6.97687328 90.2232909,6.42530056 89.9560867,5.83046723 C89.8919577,5.58171875 89.8705813,5.35460057 89.8171405,5.1274824 Z M98.5707517,12.6980884 C98.6135044,12.9252065 98.6241925,13.1198793 98.6990097,13.2712914 C98.7524506,13.3794429 98.9234613,13.4767792 99.0410312,13.4767792 C99.3723644,13.4551489 99.7143859,13.390258 100.045719,13.3361823 C100.184665,13.314552 100.409117,13.2821065 100.430493,13.1955853 C100.580128,12.7089035 100.900773,12.8927611 101.232106,12.9035762 C101.49931,12.9143914 101.894773,12.8278702 102.023031,12.6331974 C102.25817,12.2871126 102.397117,11.8328762 102.461246,11.4110853 C102.546751,10.816252 102.514686,10.2106035 102.557439,9.60495506 C102.621568,8.69648235 102.707073,7.77719448 102.792579,6.86872177 C102.803267,6.80383086 102.792579,6.7281248 102.813955,6.66323389 C102.974278,6.10084602 103.145288,5.53845815 103.273546,4.96525513 C103.326987,4.71650664 103.273546,4.45694301 103.284235,4.19737938 C103.284235,3.75395817 102.995654,3.88373999 102.760514,3.93781575 C102.675009,3.95944605 102.578815,3.9918915 102.514686,4.05678241 C102.033719,4.51101877 101.477934,4.3920521 100.943525,4.26227029 C100.206042,4.07841271 99.5006225,3.81884908 98.7096979,4.02433696 C98.3249238,4.12167332 98.1325367,4.3704218 97.9935905,4.69487634 C97.897397,4.93280967 98.2073539,5.44112179 98.46387,5.5709036 C98.7524506,5.72231572 99.0410312,5.86291269 99.3296118,6.01432481 C99.6823214,6.19818238 100.013655,6.25225814 100.419805,6.10084602 C100.697698,5.99269451 101.061095,6.02513996 101.371052,6.06840056 C101.798579,6.13329147 101.958902,6.55508238 101.85202,6.97687328 C101.648945,7.80963993 101.477934,8.64240659 101.349676,9.4859884 C101.274859,9.9510399 100.97559,10.3944611 100.526687,10.5134278 C100.088472,10.6215793 99.6395687,10.7081005 99.2120419,10.8486975 C99.0730957,10.8919581 98.8913968,11.0541853 98.8593323,11.1839672 C98.7310742,11.6922793 98.6669452,12.2114065 98.5707517,12.6980884 Z M100.50531,15.9534489 C100.526687,15.9750792 100.548063,15.9967095 100.558751,16.0183398 C100.74045,15.9101883 100.954214,15.8236671 101.09316,15.672255 C101.296235,15.4451368 101.445869,15.174758 101.595504,14.9043792 C101.702385,14.6988914 101.424493,14.3203611 101.200042,14.3311762 C100.409117,14.3744368 99.6181924,14.4068823 98.8272678,14.4825883 C98.2928593,14.5366641 97.7477626,14.5907398 97.2347304,14.742152 C96.4438059,14.9800853 95.6849458,15.2937247 94.9153976,15.5749186 C94.5092471,15.7155156 94.3275482,16.1373065 94.6481933,16.3968701 C95.0650319,16.742955 95.257419,17.2080065 95.5032469,17.6514277 C95.5673759,17.7703943 95.7490748,17.9326216 95.8452684,17.9218065 C96.2407306,17.8677307 96.6361929,17.7812095 97.020967,17.6514277 C97.3629885,17.5432762 97.6836336,17.2512671 98.0149669,17.2512671 C98.6348807,17.2512671 98.8700205,16.9268125 99.0089667,16.4185004 C99.0089667,16.4076853 99.0089667,16.386055 99.0089667,16.3752398 C99.2120419,15.8777429 99.3937408,15.7587762 99.9174611,15.8452974 C100.120536,15.8777429 100.312923,15.9210035 100.50531,15.9534489 Z M100.473246,7.9718672 C100.462558,7.78800963 100.473246,7.67985812 100.45187,7.5717066 C100.366364,7.171546 100.067095,6.86872177 99.7250741,6.87953692 C99.3402999,6.90116722 99.2120419,7.22562176 99.1372247,7.528446 C99.0196548,8.01512781 98.902085,8.51262477 98.8807086,9.01012174 C98.8593323,9.32376113 98.9982785,9.64821567 99.0837839,9.96185506 C99.1051602,10.0375611 99.2227301,10.1348975 99.2975473,10.1565278 C99.5647515,10.1997884 100.056407,9.9077793 100.120536,9.63740051 C100.259483,9.05338234 100.366364,8.46936417 100.473246,7.9718672 Z" id="Shape"></path>
                    <path d="M53.7094722,3.09615385 C54.1924047,3.13952914 54.6002143,3.29134265 54.8577783,3.76847084 C54.943633,3.92028436 55.0938786,4.0395664 55.2333925,4.15884845 C56.1026709,4.88538456 56.2207211,5.88301623 56.0919391,6.89149172 C55.9416934,8.01924926 55.8343751,9.12531915 56.2207211,10.2205452 C56.3387712,10.5675475 56.7573127,10.7518925 57.1758542,10.6109228 C57.4334182,10.5241723 57.6802503,10.3832026 57.9485461,10.3289834 C58.7534336,10.1554823 59.558321,9.91691819 60.3739403,9.86269908 C60.9641911,9.83016761 61.6188329,9.7759485 62.1768882,10.1554823 C62.2412792,10.1988576 62.316402,10.2639205 62.3378657,10.3289834 C62.4666477,10.8061116 62.509575,11.2507084 62.1017654,11.6627736 C61.7046875,12.0748389 61.4149281,12.5736547 61.0393139,12.9965638 C60.7817499,13.289347 60.4383313,13.5062234 60.1485718,13.777319 C59.9661307,13.9508202 59.7085667,14.146009 59.6656393,14.3737292 C59.4831982,15.2520789 58.8607519,15.3822047 58.1417191,15.42558 C57.5514683,15.4689553 56.9612175,15.5014868 56.3816986,15.5990812 C55.9953526,15.6641441 55.6733976,15.8701767 55.5553474,16.3039296 C55.4372973,16.7485264 55.265588,17.1822793 55.2119288,17.6377198 C55.1797333,17.8545963 55.2977835,18.1582233 55.458761,18.3100368 C55.9738889,18.8088526 56.4890169,19.3076685 57.0792677,19.6980461 C57.6051275,20.0342046 57.894887,20.4679575 58.1524509,21.0101486 C58.3134284,21.3463071 58.6890426,21.5631835 58.9573384,21.8451229 C59.6656393,22.5499714 60.4812586,23.1138502 61.3720007,23.5584469 C61.5329782,23.6343536 61.7261512,23.6451975 61.8978605,23.7211042 C62.316402,23.8946054 62.7349435,24.0897942 63.153485,24.2741392 C63.3681216,24.3608897 63.5827583,24.4367965 63.8081267,24.5235471 C65.0637512,25.0223629 66.2871801,25.564554 67.3710952,26.3886846 C67.4891453,26.4754351 67.510609,26.7031554 67.575,26.8658127 C67.4140225,26.909188 67.2315814,27.0067824 67.0920675,26.974251 C66.3301074,26.7790622 65.5466836,26.7682183 64.7739917,26.7031554 C63.2393396,26.5730295 61.736883,26.2910901 60.3202811,25.6404608 C60.1593036,25.564554 60.0197898,25.4235844 59.880276,25.3043023 C59.236366,24.7404235 58.5709924,24.1982324 57.9485461,23.6018222 C57.4870773,23.1572255 57.0899995,22.636722 56.6607262,22.1595938 C56.4890169,21.9752488 56.2636484,21.8451229 56.1026709,21.6607779 C55.9631571,21.5089644 55.8129114,21.3246194 55.7807159,21.1294306 C55.6733976,20.5547081 55.2977835,20.1860181 54.8899738,19.8390158 C54.6324098,19.6221393 54.0636227,19.763109 53.8489861,20.1426428 C53.2587353,21.1511183 52.3572613,21.8776544 51.4879829,22.5933467 C50.6830954,23.2656637 49.8030851,23.9379807 48.6547791,23.9705121 C48.4723379,23.981356 48.3006286,24.1114818 48.1289193,24.1114818 C47.6245231,24.1114818 47.120127,24.0681065 46.6157309,24.0464189 C46.347435,24.0355751 46.0684074,24.0355751 45.8001116,24.0355751 C45.6927932,24.0355751 45.5747431,24.0572627 45.4781566,24.0247312 C45.2527881,23.9596683 44.9093695,23.9705121 44.9308331,23.6343536 C44.9522968,23.3307266 45.2527881,23.3198828 45.5103521,23.2981951 C46.347435,23.2222884 47.1952498,23.1789131 48.0216009,23.0379434 C48.3972151,22.9728805 48.7728292,22.7668478 49.0733205,22.5282837 C49.6957668,22.0403117 50.4684588,21.7041532 50.8440729,20.9342418 C50.8762684,20.8800227 50.9299276,20.8258036 50.9943186,20.804116 C51.8314015,20.435426 52.2821385,19.6546708 52.8723893,19.0148853 C53.3767854,18.4618503 52.9904394,17.3883119 52.4109205,16.9437152 C52.1748202,16.7593702 51.9172562,16.5967128 51.6596922,16.4232117 C51.3592009,16.2171791 51.0372459,16.3798364 51.0372459,16.7485264 C51.0372459,17.1714354 51.0801732,17.6051883 51.1123687,18.0280974 C51.1231006,18.2449739 51.0801732,18.483538 50.8440729,18.4726941 C50.6616318,18.4618503 50.4577269,18.3208806 50.3289449,18.1799109 C50.1465038,17.9847221 50.00699,17.7353142 49.8567443,17.5075939 C49.749426,17.323249 49.6421077,17.138904 49.5669848,16.9437152 C49.3738118,16.4774308 49.1806389,16.0219903 49.0303932,15.5448621 C48.9230749,15.2087036 48.7084382,15.0352024 48.3650196,15.0785777 C48.1825784,15.1111092 47.9894054,15.0785777 47.7962324,15.0677339 C47.0771997,15.0135148 46.3688987,14.9592956 45.6498659,14.9050765 C45.3815701,14.8833889 45.1132743,14.9267642 44.8449785,14.8942327 C44.748392,14.8833889 44.5981463,14.6990439 44.6088782,14.6556686 C44.6732691,14.4930113 44.7591238,14.2544472 44.8986376,14.2110719 C45.6284023,13.9291325 46.4010942,13.896601 47.1308588,14.146009 C47.7533051,14.3628854 48.3542877,14.0917898 48.9552704,14.1676966 C49.041125,14.1785404 49.2021025,14.0050393 49.234298,13.8857572 C49.5025938,13.0833144 49.3952755,12.3350906 48.8801475,11.641086 C48.8050247,11.5326477 48.7084382,11.4133657 48.6977064,11.2940836 C48.6869746,11.1205825 48.6977064,10.8277993 48.7728292,10.7952678 C48.9874659,10.7193611 49.2450299,10.7193611 49.3738118,11.0013004 C49.7601578,11.7820557 50.2430903,11.9989321 51.1338324,11.8471186 C51.2948099,11.8254309 51.4665192,11.9121815 51.6382285,11.8904939 C52.185552,11.8471186 52.7436073,11.7820557 53.2909308,11.7278365 C53.6665449,11.6844613 54.0528909,11.641086 54.428505,11.5651792 C54.5465552,11.5434916 54.6968008,11.4025219 54.7397282,11.2832398 C55.1153423,10.1446385 55.1582696,8.95181799 55.1260741,7.76984134 C55.1153423,7.45537049 54.9972921,7.15174346 54.9758285,6.84811643 C54.9543648,6.50111411 55.0616831,6.15411179 54.9972921,5.81795329 C54.8577783,5.04804189 54.4177732,4.41910019 53.9348407,3.82268995 C53.7845951,3.63834497 53.7309359,3.36724941 53.6236176,3.13952914 C53.6236176,3.15037296 53.6665449,3.11784149 53.7094722,3.09615385 Z M53.2265398,15.9243959 C53.8275224,15.9352397 54.2138684,15.6749879 54.3533822,15.1870159 C54.5036278,14.6448248 54.5894825,14.080946 54.7075327,13.5279111 C54.7933873,13.1483773 54.5465552,12.8339064 54.1602092,12.8447503 C54.0099635,12.8447503 53.8489861,12.920657 53.6987404,12.920657 C52.8831211,12.8772817 52.0675018,12.801375 51.2626144,12.7688435 C51.0801732,12.7579997 50.7796819,12.7905312 50.7152909,12.8989694 C50.6294363,13.0724705 50.6508999,13.3435661 50.7045591,13.5604425 C50.7796819,13.8749134 51.0265141,14.1893843 51.0050504,14.4821675 C50.9835867,14.9050765 51.2411507,15.0460462 51.5094465,15.1870159 C51.8957925,15.4038924 52.314334,15.5665497 52.7114118,15.7400509 C52.9153166,15.8268014 53.1299533,15.8918644 53.2265398,15.9243959 Z M55.9953526,14.6773563 C56.5319442,14.818326 56.993413,14.6773563 57.4763455,14.5363866 C58.0987918,14.3520416 58.3348921,13.7556314 58.7641654,13.3652537 C58.9466066,13.2025964 59.0431931,12.9098132 59.107584,12.6495615 C59.2149024,12.1941209 58.8070927,11.7169927 58.3885513,11.8037433 C57.701714,11.944713 57.0148767,12.1182142 56.3387712,12.313403 C56.2099892,12.3459344 56.0704754,12.4977479 56.0168162,12.6278738 C55.7592523,13.289347 55.7485204,13.9833516 55.9953526,14.6773563 Z" id="Shape"></path>
                    <path d="M11.186846,4.92402468 C10.9836433,4.2092375 10.3419504,4.18790057 9.59330867,4.31592215 C9.28315711,4.36926448 8.95161578,4.37993294 8.64146422,4.36926448 C8.52382053,4.35859601 8.32061778,4.2092375 8.32061778,4.13455824 C8.33131266,3.98519972 8.42756659,3.76116195 8.54521029,3.70781962 C8.86605673,3.57979804 8.98370043,3.36642873 8.9409209,3.05704323 C8.91953114,2.90768472 8.84466697,2.73698927 8.73771816,2.63030461 C8.34200754,2.203566 7.81795835,2.06487595 7.26182451,1.94752283 C7.13348594,1.91551743 7.037232,1.69147966 6.93028319,1.56345807 C7.10140129,1.47811035 7.28321428,1.3074149 7.43294262,1.32875183 C8.50243076,1.51011574 9.53983427,1.79816431 10.5344582,2.26757679 C10.9836433,2.4809461 11.3472692,2.74765773 11.732285,3.02503784 C12.1600802,3.33442333 12.3525881,3.72915655 12.5878755,4.15589517 C12.6948243,4.35859601 13.1226196,4.49728606 13.3899916,4.47594913 C14.0637691,4.44394374 14.7375467,4.27324829 15.4113242,4.21990596 C15.7428655,4.19856903 16.0851017,4.29458522 16.416643,4.36926448 C16.6519304,4.42260681 16.8551332,4.60397072 16.7588793,4.84934542 C16.7054048,4.98803547 16.4701175,5.10538859 16.2989993,5.14806246 C15.7214758,5.27608404 15.0797829,5.06271473 14.5343439,5.46811642 C14.4594797,5.52145875 14.2776668,5.46811642 14.1600231,5.43611102 C13.8284817,5.36143176 13.6680585,5.55346414 13.5931943,5.82017578 C13.5076353,6.14022974 13.7429227,6.25758286 13.9995998,6.35359905 C14.1600231,6.40694138 14.341836,6.43894677 14.4701746,6.5242945 C14.5771234,6.58830529 14.6947671,6.74833227 14.6840722,6.85501692 C14.6733774,6.97237004 14.5343439,7.18573935 14.4487849,7.18573935 C13.7963971,7.16440242 13.5824995,7.72983109 13.2830428,8.10322738 C13.1440093,8.27392283 13.2295684,8.72199837 13.3365172,8.99937848 C13.4220762,9.23408471 13.7322278,9.40478016 13.5718046,9.70349719 C13.3899916,10.0342196 13.1119247,10.1088989 12.7162141,10.0555566 C12.3205034,10.0022142 11.914098,10.1729097 11.636031,10.5143006 C11.4221334,10.7810122 11.5076925,11.1010662 11.6146413,11.3571093 C11.7215901,11.5918156 11.9034031,11.7518426 12.2456393,11.6558264 C13.1653991,11.4104517 14.0958538,11.1970824 15.0156136,10.9943815 C15.1118675,10.9730446 15.2722907,11.0370554 15.3150703,11.1117346 C15.3578498,11.1864139 15.3150703,11.3784463 15.250901,11.4211201 C14.6305978,11.8051849 14.1493282,12.4026189 13.4006865,12.5626459 C13.07984,12.6266567 12.7376038,12.6266567 12.4060625,12.6586621 C12.2456393,12.679999 12.0959109,12.7226729 11.9461826,12.7333414 C11.1654562,12.7760152 10.6414071,13.7361771 11.1547614,14.4082904 C11.4221334,14.7496813 11.8392338,14.696339 12.2242495,14.6216598 C12.7482987,14.5149751 13.2937377,14.696339 13.4006865,15.2084254 C13.4755506,15.5818216 13.3579069,16.0619026 13.1653991,16.4032935 C13.0156707,16.6700051 12.6092652,16.6379997 12.3098086,16.4993097 C12.0638263,16.3819566 11.8499287,16.1899242 11.6039464,16.1152449 C10.7911354,15.8805387 10.5237634,16.1579188 10.4061197,17.011396 C10.3205606,17.6194985 10.3312555,18.248938 10.3205606,18.867709 C10.3098657,19.2944476 10.1708323,19.6571754 9.90346023,19.9772294 C9.77512166,20.1372564 9.6360882,20.2972834 9.5184445,20.4786473 C9.21898782,20.9053859 8.75910792,20.8947174 8.53451541,20.4253049 C8.42756659,20.2012672 8.38478707,19.9345555 8.32061778,19.6891808 C8.25644849,19.4758115 8.21366896,19.2624422 8.12810991,19.0597414 C7.93560205,18.6009974 7.95699181,18.2809434 8.45965124,18.0249002 C8.70563351,17.9075471 8.78049768,17.7688571 8.82327721,17.5021454 C8.89814138,17.011396 9.10134413,16.5313151 9.21898782,16.0405657 C9.3473264,15.4964739 9.43288545,14.9523822 9.56122403,14.3016058 C9.24037758,14.3336112 9.0585646,14.3549481 8.87675161,14.3762851 C7.7323993,14.5683174 6.72708044,15.155083 5.66828718,15.5818216 C5.51855884,15.6458324 5.36883049,15.7418486 5.24049192,15.8485333 C4.91964547,16.1472503 4.54532462,16.1259134 4.14961401,16.0832395 C3.8073778,16.0512341 3.46514159,16.0085603 3.13360027,16.0405657 C2.16036606,16.1365818 1.20852161,16.0832395 0.278066918,15.8271963 C0.160423222,15.795191 0.0962539332,15.613827 0,15.4964739 C0.117643696,15.4217947 0.245982274,15.2937731 0.36362597,15.2937731 C0.855590517,15.2724361 1.34755506,15.3044415 1.83951961,15.2831046 C2.47051762,15.2510992 3.12290539,15.2510992 3.73251363,15.1017407 C4.35281676,14.9417137 4.93034035,14.6109913 5.52925372,14.3762851 C6.22442101,14.1095734 6.91958831,13.8748672 7.6147556,13.6081555 C8.23505873,13.3734493 8.95161578,13.3947862 9.49705474,12.9147053 C9.78581654,12.6586621 9.94623976,12.1785812 9.8072063,11.8371903 C9.67886772,11.5064679 9.41149569,11.5918156 9.19759806,11.6344894 C8.3099229,11.8371903 7.4436375,12.1359073 6.54526746,12.2745974 C6.14955684,12.3386082 5.70037182,12.1039019 5.29396632,11.9545434 C5.12284822,11.8905326 5.21910215,11.4424571 5.4223049,11.4104517 C5.70037182,11.3571093 5.98913362,11.3891147 6.26720054,11.3571093 C6.82333437,11.2930985 7.39016309,11.2504247 7.93560205,11.1330716 C8.43826147,11.0263869 8.93022602,10.845023 9.42219057,10.6956645 C9.43288545,10.6423222 9.45427521,10.5889798 9.46497009,10.546306 C8.96231067,10.2475889 8.47034612,9.9168665 7.94629693,9.66082333 C7.82865323,9.607481 7.59336584,9.75683952 7.42224774,9.84218724 C7.28321428,9.92753497 7.18696034,10.0768935 7.04792688,10.1622412 C6.80194461,10.3222682 6.43831864,10.0982304 6.48109817,9.74617106 C6.54526746,9.18074239 6.67360603,8.61531372 6.78055485,8.06055352 C6.80194461,7.93253193 6.85541902,7.80451035 6.8661139,7.67648876 C6.87680878,7.3884402 6.68430091,7.22841321 6.39553912,7.31376094 C6.1174722,7.39910866 5.86079504,7.52713025 5.58272812,7.58047257 C5.27257656,7.64448337 4.95173012,7.67648876 4.65227344,7.6338149 C4.18169865,7.56980411 3.71112387,7.43111406 3.24054908,7.3244294 C3.15499003,7.30309247 3.04804122,7.29242401 2.98387193,7.23908168 C2.887618,7.15373396 2.78066918,7.03638084 2.7699743,6.92969618 C2.75927942,6.85501692 2.90900776,6.71632687 3.00526169,6.69498994 C3.44375183,6.62031068 3.89293685,6.58830529 4.33142699,6.53496296 C5.19771239,6.40694138 6.08538755,6.41760984 6.94097807,6.15089821 C8.08533039,5.79883885 9.26176735,5.56413261 10.4168145,5.25474711 C10.6948815,5.18006785 10.9301689,5.0413778 11.186846,4.92402468 Z M7.57197608,7.98587426 C7.58267096,8.40194441 7.82865323,8.60464525 8.20297408,8.43394981 C8.60937958,8.26325436 9.00509019,8.06055352 9.35802128,7.81517881 C9.83929095,7.48445638 10.3526453,7.31376094 10.919474,7.24975015 C11.368659,7.20707628 11.7215901,7.01504391 11.8927082,6.58830529 C11.9461826,6.4602837 11.9568775,6.26825133 11.8820133,6.16156667 C11.817844,6.05488202 11.636031,5.98020276 11.4969976,5.98020276 C11.3151846,5.96953429 11.1333716,6.02287662 10.9622535,6.07621895 C10.1494425,6.33226212 9.33663152,6.60964222 8.51312564,6.83367999 C7.92490716,6.99370697 7.56128119,7.3884402 7.57197608,7.98587426 Z M10.8339149,7.78317342 C10.5451531,7.88985807 10.288476,7.96453733 10.0531886,8.09255891 C9.74303701,8.26325436 9.47566498,8.51929753 9.15481853,8.65798758 C8.87675161,8.78600917 8.75910792,8.97804154 8.81258233,9.22341625 C8.87675161,9.49012788 9.26176735,9.607481 9.50774962,9.55413868 C10.1173579,9.42611709 10.5986275,9.10606313 11.0585074,8.70066144 C11.2724051,8.50862907 11.5183873,8.35927055 11.368659,8.07122198 C11.3044897,7.9432004 11.0478126,7.88985807 10.8339149,7.78317342 Z" id="Shape"></path>
                    <path d="M22.8788511,13.7711543 C22.6440089,13.803153 22.4091668,13.8351517 22.1849992,13.8778167 C21.3203531,14.0378104 21.2990038,14.1338066 21.4057503,15.0511037 C21.5445206,16.2670556 21.8434107,17.4616751 22.0035303,18.6776271 C22.0675782,19.1256094 21.9181332,19.6055904 21.8647599,20.0749052 C21.8540853,20.2242326 21.8220614,20.3842263 21.8754346,20.5228875 C22.0889275,21.152196 21.7153149,21.717507 21.683291,22.3148167 C21.6619417,22.8161302 21.683291,23.3174437 21.683291,23.808091 C21.683291,23.9894172 21.6512671,24.1707434 21.6192431,24.3414033 C21.4911474,25.0347092 21.3523771,25.7173489 21.2242813,26.4106549 C21.1602335,26.7839734 21.1815828,27.1892908 21.0428124,27.5199444 C20.8826928,27.9145954 20.6158267,28.287914 20.338286,28.6185676 C20.1354677,28.8638913 19.0039555,28.7358963 18.8331612,28.4799064 C18.5983191,28.1172541 18.8011373,27.765268 19.0253048,27.5519431 C19.7725299,26.8266384 19.9539988,25.9946713 19.8259031,24.9920442 C19.7725299,24.6187257 19.9753481,24.2134083 20.0500706,23.808091 C20.156817,23.1467838 20.2742381,22.4748104 20.3489606,21.8028369 C20.4130085,21.2161934 20.4130085,20.6188837 20.4343577,20.021574 C20.4663817,19.3069355 20.487731,18.5922971 20.5197549,17.8776587 C20.5304295,17.6003363 20.5944774,17.3336802 20.5944774,17.0563578 C20.5944774,16.4803805 20.5838027,15.9044033 20.5624535,15.3390923 C20.5624535,15.1577661 20.5197549,14.97644 20.5090802,14.7951138 C20.487731,14.4964589 20.156817,14.1764716 19.9113002,14.2938003 C19.3562188,14.5497902 18.7904627,14.4324615 18.2247066,14.4324615 C17.584228,14.4324615 17.6055773,14.4324615 17.5522041,15.0617699 C17.5095055,15.5524172 17.4134337,16.0430645 17.3493858,16.5337118 C17.3387112,16.5977092 17.3066873,16.6830392 17.3280365,16.7257042 C17.584228,17.1203553 17.3707351,17.4083439 17.1679169,17.7496637 C17.0184719,17.9949874 16.9437494,18.3043085 16.9330747,18.5922971 C16.8903762,19.456263 16.7089072,20.2988963 16.4206919,21.109531 C16.3032708,21.4188521 15.6627922,21.6961745 15.3532275,21.589512 C15.0970361,21.504182 14.9689404,21.0988647 15.0329882,20.7575449 C15.1183854,20.2455651 15.1397347,19.7335853 15.2251318,19.2216056 C15.2678304,18.9869482 15.3532275,18.7309583 15.5026725,18.5496321 C15.8015626,18.1869798 15.9403329,17.8243274 15.908309,17.3550127 C15.8869597,16.9816941 15.9830315,16.5977092 16.057754,16.2243907 C16.1751751,15.5844159 16.3246201,14.9444412 16.4100172,14.3044665 C16.4847397,13.7071568 16.506089,13.109847 16.5274383,12.5125373 C16.5381129,12.2352149 16.6448594,11.8618964 16.506089,11.6912364 C16.1645004,11.2752529 15.908309,10.8699356 15.9723568,10.3152908 C15.9937061,10.1232984 15.8656104,9.84597601 15.9510076,9.76064605 C16.0791033,9.64331735 16.3459694,9.68598233 16.5381129,9.64331735 C16.7516058,9.58998612 16.9757733,9.55798739 17.1572423,9.45132493 C17.6696251,9.14200382 18.2887544,8.96067765 18.6196684,8.38470041 C18.6943909,8.25670547 18.8758598,8.16070926 19.0253048,8.09671179 C19.3562188,7.9580506 19.3775681,7.72339321 19.3028456,7.41407209 C19.1213766,6.75276489 19.1320513,6.74209865 19.7938791,6.53943999 C20.1995156,6.41144504 20.605152,6.23011887 21.0107885,6.19812014 C21.4697981,6.1661214 21.9394824,6.27278385 22.3984921,6.35811382 C22.6653582,6.41144504 22.9535736,6.50744125 23.1670664,6.66743493 C23.4979804,6.93409106 23.35921,7.35007462 22.9749228,7.5100683 C22.5372625,7.69139447 22.1102767,7.90471938 21.683291,8.11804428 C21.234956,8.33136918 20.786621,8.53402784 20.3596352,8.77935148 C20.1461424,8.90734643 19.9966974,9.14200382 19.7938791,9.3019975 C19.6657834,9.39799371 19.4949891,9.46199118 19.3348695,9.48332367 C18.480898,9.57931988 17.9044673,10.1232984 17.8297448,10.9979305 C17.7763716,11.6592377 17.7550223,12.3205449 17.7443476,12.9711859 C17.733673,13.4405007 17.9364912,13.6324931 18.3955009,13.5471631 C19.0573288,13.4191682 19.708482,13.2165095 20.3596352,13.0565158 C20.9253913,12.9178546 21.5018221,12.7898597 22.0675782,12.6405323 C23.0709946,12.3845424 24.0744111,12.064555 25.0885022,11.8832288 C25.4727894,11.8192314 25.963823,11.9898913 26.3054115,12.2032162 C26.7003734,12.4378736 26.4548566,13.1418458 25.9211244,13.2911732 C25.3767176,13.4511669 24.8002868,13.5258306 24.2345308,13.6324931 C23.7968704,13.7071568 23.35921,13.760488 22.9215496,13.8244855 C22.8895257,13.8138192 22.8895257,13.7924867 22.8788511,13.7711543 Z" id="Path"></path>
                    <path d="M3.975,17.8765471 C4.11961784,17.478103 4.23086233,17.0562209 4.41997797,16.6694957 C4.60909361,16.2827705 4.7870848,16.2710515 5.07632049,16.599182 C5.27656057,16.821842 5.44342731,16.9507504 5.76603634,16.8687178 C6.07752093,16.7866852 6.25551212,17.044502 6.15539207,17.3726324 C6.03302313,17.7827956 5.87728084,18.1695208 5.76603634,18.5796839 C5.6881652,18.8726575 5.56579626,18.989847 5.26543612,19.0132849 C4.52009802,19.0718796 4.09736894,18.6968733 4.09736894,17.911704 C4.0417467,17.911704 4.00837335,17.8882661 3.975,17.8765471 Z" id="Path"></path>
                    <g id="Group" transform="translate(1.766667, 34.500000)">
                        <path d="M0.934110934,9.44490741 L0.934110934,2.63009259 C0.934110934,2.3212963 0.86968949,2.06574074 0.740846603,1.84212963 C0.612003715,1.61851852 0.450950106,1.51203704 0.257685775,1.51203704 L0.257685775,1.20324074 C0.322107219,1.19259259 0.826741861,0.915740741 1.7715897,0.362037037 C1.83601115,0.383333333 1.9111695,0.40462963 2.00780166,0.436574074 C2.10443383,0.468518519 2.22253981,0.553703704 2.37285651,0.702777778 C2.52317321,0.851851852 2.59833156,1.02222222 2.59833156,1.21388889 C2.6520161,1.18194444 2.81306971,1.09675926 3.07075548,0.947685185 C3.75791755,0.564351852 4.16592003,0.362037037 4.29476292,0.362037037 C4.59539632,0.362037037 4.87455591,0.553703704 5.13224168,0.947685185 C5.38992746,1.33101852 5.51877035,1.69305556 5.51877035,2.0125 L5.51877035,8.96574074 C5.51877035,9.47685185 5.7442454,9.775 6.20593241,9.86018519 L6.20593241,10.1689815 L4.69202849,11.0101852 C4.48802725,10.925 4.29476292,10.7865741 4.1229724,10.6055556 C3.95118188,10.4138889 3.85454972,10.2435185 3.85454972,10.0731481 L3.85454972,3.30092593 C3.85454972,2.71527778 3.76865446,2.3212963 3.59686394,2.10833333 C3.42507343,1.89537037 3.0922293,1.78888889 2.59833156,1.78888889 L2.59833156,8.88055556 C2.59833156,9.25324074 2.64127919,9.49814815 2.73791136,9.63657407 C2.83454352,9.775 2.97412332,9.83888889 3.16738765,9.83888889 L3.16738765,10.2648148 L0.322107219,11.4574074 L0.0966321656,11.0101852 C0.27915959,11.0101852 0.461687013,10.9037037 0.644214437,10.6800926 C0.837478769,10.4351852 0.934110934,10.0199074 0.934110934,9.44490741 Z" id="Path"></path>
                        <path d="M12.9272364,1.71435185 C12.8306042,1.71435185 12.7554459,1.75694444 12.6802875,1.85277778 L12.6802875,5.50509259 L14.6451415,5.50509259 L14.6451415,5.83518519 L13.9472426,6.17592593 L12.6695506,6.17592593 L12.6695506,7.56018519 C12.6695506,8.58240741 12.7769197,9.1787037 12.9809209,9.35972222 C13.2922912,9.61527778 13.6251354,9.76435185 13.9794533,9.80694444 C14.3445081,9.83888889 14.7310368,9.86018519 15.1497762,9.86018519 L15.1497762,10.2648148 C15.1068286,10.2648148 14.7632475,10.3925926 14.1190331,10.6481481 C13.4748186,10.9037037 13.08829,11.0314815 12.9487102,11.0314815 C12.6588137,11.0314815 12.2615481,10.8078704 11.7569135,10.3712963 C11.2522788,9.92407407 10.9945931,9.44490741 10.9945931,8.9337963 L10.9945931,1.66111111 C10.9945931,1.59722222 11.5314384,1.37361111 12.5943923,0.97962963 C13.6573461,0.585648148 14.2693498,0.393981481 14.4304034,0.393981481 C14.4840879,0.393981481 14.5485094,0.532407407 14.6236677,0.798611111 C14.6988261,1.06481481 14.7847213,1.38425926 14.8813535,1.76759259 C14.9779857,2.14027778 15.0853547,2.42777778 15.1927238,2.6087963 C15.3000929,2.78981481 15.5040941,2.875 15.7939906,2.875 L15.7939906,3.15185185 C15.5899894,3.24768519 15.2464084,3.40740741 14.7525106,3.64166667 C14.2693498,3.87592593 14.0009271,3.99305556 13.9687164,3.99305556 C13.8291366,3.99305556 13.6573461,3.62037037 13.4426079,2.86435185 C13.2278698,2.09768519 13.0560793,1.71435185 12.9272364,1.71435185 Z" id="Path"></path>
                        <path d="M23.6319329,2.40648148 C23.6319329,1.89537037 23.4064579,1.59722222 22.9447709,1.51203704 L22.9447709,1.20324074 C23.9433033,0.649537037 24.4586748,0.372685185 24.4586748,0.372685185 C24.5445701,0.372685185 24.6948868,0.45787037 24.9096249,0.638888889 C25.1243631,0.819907407 25.2532059,1.01157407 25.2961536,1.21388889 C25.3176274,1.19259259 25.596787,1.05416667 26.1443692,0.777314815 C26.6919515,0.500462963 26.9711111,0.372685185 26.981848,0.372685185 C27.1643754,0.372685185 27.3683767,0.479166667 27.5938517,0.702777778 C28.023328,1.1287037 28.2380662,1.69305556 28.2380662,2.40648148 L28.2380662,9.73240741 C28.2380662,9.81759259 27.7441684,10.0518519 26.7456361,10.4351852 C25.7471037,10.8185185 25.1351,11.0208333 24.8881511,11.0208333 C24.4479379,11.0208333 24.09362,10.7333333 23.8037235,10.1689815 C22.7837173,10.7439815 22.1395028,11.0208333 21.8710801,11.0208333 C21.6026575,11.0208333 21.3342348,10.8291667 21.0872859,10.4351852 C20.8296001,10.0412037 20.7007573,9.67916667 20.7007573,9.34907407 L20.7007573,2.40648148 C20.7007573,1.89537037 20.4752822,1.59722222 20.0135952,1.51203704 L20.0135952,1.20324074 L21.5274991,0.362037037 C21.7315004,0.447222222 21.9247647,0.585648148 22.0965552,0.766666667 C22.2683457,0.958333333 22.3649779,1.1287037 22.3649779,1.28842593 L22.3649779,8.32685185 C22.3649779,9.2 22.6441375,9.63657407 23.1917197,9.63657407 C23.3312995,9.63657407 23.4708793,9.60462963 23.621196,9.55138889 L23.621196,2.40648148 L23.6319329,2.40648148 Z M25.4894179,9.28518519 C25.6075239,9.54074074 25.7685775,9.66851852 25.9725787,9.66851852 C26.17658,9.66851852 26.3698443,9.62592593 26.5631086,9.54074074 L26.5631086,2.90694444 C26.5631086,2.42777778 26.4664765,2.10833333 26.2732121,1.94861111 C26.0799478,1.78888889 25.7578406,1.7037037 25.3283643,1.69305556 L25.3283643,8.46527778 C25.3176274,8.75277778 25.3713119,9.02962963 25.4894179,9.28518519 Z" id="Shape"></path>
                        <path d="M43.3448947,5.36666667 L43.3448947,2.93888889 C43.3448947,2.59814815 43.312684,2.35324074 43.2375257,2.20416667 C43.1623673,2.05509259 43.0120506,1.98055556 42.7758386,1.98055556 L42.7758386,1.55462963 L45.631856,0.362037037 L45.857331,0.809259259 C45.6533298,0.809259259 45.4600655,0.926388889 45.2668011,1.1712963 C45.0950106,1.40555556 45.0198523,1.75694444 45.0198523,2.22546296 L45.0198523,5.37731481 L45.7177512,5.37731481 L45.7177512,5.70740741 L45.0198523,6.04814815 L45.0198523,8.97638889 C45.0198523,9.54074074 45.2131166,9.86018519 45.5889084,9.93472222 L45.5889084,10.2435185 L44.1823735,11.0314815 C43.9783723,10.9462963 43.7851079,10.8078704 43.6133174,10.6268519 C43.4415269,10.4351852 43.3448947,10.2648148 43.3448947,10.0944444 L43.3448947,6.0587963 L42.0886766,6.0587963 L42.0886766,8.90185185 C42.0886766,9.24259259 42.1208873,9.4875 42.1960456,9.63657407 C42.271204,9.78564815 42.4215207,9.86018519 42.6577327,9.86018519 L42.6577327,10.2861111 L39.8017153,11.4787037 L39.5762403,11.0314815 C39.7802415,11.0314815 39.9735058,10.9143519 40.1667702,10.6694444 C40.3385607,10.4351852 40.413719,10.0837963 40.413719,9.61527778 L40.413719,2.42777778 C40.413719,1.86342593 40.2204547,1.54398148 39.844663,1.46944444 L39.844663,1.16064815 L41.2511978,0.372685185 C41.455199,0.45787037 41.6484634,0.596296296 41.8202539,0.777314815 C41.9920444,0.968981481 42.0886766,1.13935185 42.0886766,1.30972222 L42.0886766,5.7287037 L42.7865755,5.35601852 L43.3448947,5.35601852 L43.3448947,5.36666667 Z" id="Path"></path>
                        <path d="M50.4849381,9.25324074 L50.4849381,2.93888889 C50.4849381,2.59814815 50.4527274,2.35324074 50.377569,2.20416667 C50.3024107,2.05509259 50.1520939,1.98055556 49.915882,1.98055556 L49.915882,1.55462963 L52.7718993,0.362037037 L52.9973744,0.809259259 C52.7933731,0.809259259 52.6001088,0.926388889 52.4068445,1.1712963 C52.235054,1.40555556 52.1598956,1.75694444 52.1598956,2.22546296 L52.1598956,8.72083333 C52.1598956,8.96574074 52.2028432,9.14675926 52.2887385,9.25324074 C52.3746338,9.35972222 52.5142136,9.41296296 52.7182148,9.41296296 L52.7182148,9.7962963 C50.8285191,10.6162037 49.8836713,11.0314815 49.8729344,11.0314815 L49.6474593,10.5842593 C49.7226177,10.5842593 49.8085129,10.5523148 49.915882,10.4884259 C50.0232511,10.424537 50.1091463,10.35 50.1843047,10.2648148 C50.3883059,10.0412037 50.4849381,9.70046296 50.4849381,9.25324074 Z" id="Path"></path>
                        <path d="M58.4731971,6.6125 C58.2369851,6.6125 58.0437208,6.44212963 57.8719303,6.09074074 C57.7001398,5.73935185 57.6249814,5.31342593 57.6249814,4.80231481 L57.6249814,1.92731481 C57.6249814,1.75694444 58.1081423,1.44814815 59.0852008,1.02222222 C60.0622594,0.596296296 60.6205786,0.383333333 60.7708953,0.383333333 C60.8782643,0.383333333 61.0393179,0.564351852 61.2433192,0.937037037 C61.2862668,1.03287037 61.3614252,1.15 61.4473204,1.30972222 C61.5332157,1.46944444 61.608374,1.59722222 61.6620586,1.69305556 C61.7801645,1.91666667 61.9412182,2.02314815 62.1237456,2.02314815 L62.1237456,2.3 C61.9734289,2.36388889 61.7801645,2.45972222 61.5224788,2.5875 C60.9319489,2.90694444 60.6205786,3.06666667 60.5776309,3.06666667 C60.4380511,3.06666667 60.2662606,2.78981481 60.0515225,2.24675926 C59.8475212,1.7037037 59.6757307,1.42685185 59.5468878,1.42685185 C59.3750973,1.42685185 59.299939,1.56527778 59.299939,1.84212963 L59.299939,4.91944444 C59.299939,5.29212963 59.3858342,5.47314815 59.5468878,5.47314815 C59.5790985,5.47314815 59.868995,5.35601852 60.4058404,5.11111111 C60.9426858,4.87685185 61.264793,4.74907407 61.382899,4.74907407 C61.608374,4.74907407 61.8016384,4.93009259 61.9734289,5.28148148 C62.1452194,5.63287037 62.2311146,6.09074074 62.2311146,6.64444444 L62.2311146,9.58333333 C62.2311146,9.7537037 61.6942693,10.0625 60.6313155,10.4884259 C59.5683616,10.9143519 58.9563579,11.1273148 58.7953043,11.1273148 C58.7308829,11.1273148 58.6557245,11.0527778 58.5698293,10.8930556 C58.483934,10.7333333 58.3765649,10.5097222 58.2369851,10.2222222 C58.0974053,9.93472222 57.9792994,9.68981481 57.8719303,9.49814815 C57.7645612,9.30648148 57.6142445,9.21064815 57.4317171,9.21064815 L57.4317171,8.9337963 C57.5820338,8.86990741 57.7752981,8.77407407 58.022247,8.6462963 C58.6127769,8.32685185 58.9348841,8.16712963 58.9885686,8.16712963 C59.1281484,8.16712963 59.3214128,8.48657407 59.5790985,9.12546296 C59.8367843,9.76435185 60.0300487,10.0837963 60.1588915,10.0837963 C60.2555237,10.0837963 60.341419,10.0518519 60.4273142,9.97731481 C60.5132095,9.90277778 60.5561571,9.80694444 60.5561571,9.66851852 L60.5561571,6.55925926 C60.5561571,6.14398148 60.4380511,5.94166667 60.2125761,5.94166667 C60.1374177,5.94166667 59.8475212,6.04814815 59.3321497,6.27175926 C58.8167781,6.49537037 58.5376185,6.6125 58.4731971,6.6125 Z" id="Path"></path>
                        <path d="M68.6088376,9.60462963 L68.6088376,2.2787037 L69.0383139,1.86342593 L68.1578875,1.86342593 C67.5888314,1.86342593 67.2667242,2.0125 67.1915658,2.3212963 L66.8801955,2.3212963 L66.0856644,1.19259259 C66.1930334,1.02222222 66.3433501,0.8625 66.5151407,0.724074074 C66.6869312,0.585648148 66.8587217,0.521759259 67.0305122,0.521759259 L70.7132714,0.521759259 C71.2823275,0.521759259 71.6044347,0.372685185 71.6795931,0.0638888889 L71.9909634,0.0638888889 L72.7854945,1.19259259 C72.6781254,1.36296296 72.5278087,1.52268519 72.3560182,1.66111111 C72.1842277,1.79953704 72.0124372,1.86342593 71.8406467,1.86342593 L70.2837951,1.86342593 L70.2837951,8.88055556 C70.2837951,9.2212963 70.3160058,9.4662037 70.3911642,9.61527778 C70.4663225,9.76435185 70.6166392,9.83888889 70.8528512,9.83888889 L70.8528512,10.2648148 L67.9968339,11.4574074 L67.7713588,11.0101852 C67.97536,11.0101852 68.1686244,10.8930556 68.3618887,10.6481481 C68.5336792,10.4351852 68.6088376,10.0837963 68.6088376,9.60462963 Z" id="Path"></path>
                        <path d="M76.7688871,8.99768519 L76.7688871,1.63981481 C76.7688871,1.57592593 77.2949956,1.35231481 78.3579494,0.958333333 C79.4209032,0.564351852 80.02217,0.372685185 80.1832236,0.372685185 C80.3442772,0.372685185 80.5804892,0.564351852 80.9025964,0.937037037 C81.2247036,1.30972222 81.3857573,1.66111111 81.3857573,1.95925926 L81.3857573,9.72175926 C81.3857573,9.7962963 80.8811226,10.0305556 79.8611164,10.424537 C78.8411102,10.8185185 78.2183696,11.0101852 77.9928946,11.0101852 C77.7674195,11.0101852 77.5097337,10.8078704 77.2091003,10.4138889 C76.9084669,10.0305556 76.7688871,9.55138889 76.7688871,8.99768519 Z M79.1524805,9.74305556 C79.3242711,9.74305556 79.5067985,9.66851852 79.7000628,9.51944444 L79.7000628,2.67268519 C79.7000628,1.9912037 79.4638508,1.65046296 78.9914269,1.65046296 C78.8088995,1.65046296 78.6263721,1.71435185 78.4438447,1.85277778 L78.4438447,8.71018519 C78.4438447,9.40231481 78.6800566,9.74305556 79.1524805,9.74305556 Z" id="Shape"></path>
                        <path d="M86.8401062,9.60462963 L86.8401062,2.44907407 C86.8401062,1.88472222 86.6468418,1.56527778 86.2710501,1.49074074 L86.2710501,1.18194444 L87.6775849,0.393981481 C87.8601123,0.468518519 88.0533767,0.596296296 88.2359041,0.798611111 C88.4184315,0.990277778 88.5150637,1.1712963 88.5150637,1.32037037 C89.5350699,0.702777778 90.1255998,0.393981481 90.2759165,0.393981481 C90.4262332,0.393981481 90.6624452,0.585648148 90.9845524,0.958333333 C91.3066596,1.33101852 91.4677132,1.68240741 91.4677132,1.98055556 L91.4677132,5.86712963 C91.4677132,5.94166667 90.9630786,6.17592593 89.9538093,6.56990741 C90.3832856,7.99675926 90.8879202,8.96574074 91.4569763,9.45555556 C91.7146621,9.66851852 91.9830847,9.775 92.2515074,9.775 L92.2515074,10.1902778 C91.3925548,10.7333333 90.8342357,11.0101852 90.6087606,11.0101852 C90.2973903,11.0101852 89.9108616,10.4351852 89.4491746,9.29583333 C88.9767507,8.15648148 88.7298018,7.40046296 88.6868542,7.02777778 L88.5365375,7.07037037 L88.5365375,8.88055556 C88.5365375,9.2212963 88.5687482,9.4662037 88.6439066,9.61527778 C88.7190649,9.76435185 88.8693816,9.83888889 89.1055936,9.83888889 L89.1055936,10.2648148 L86.2495763,11.4574074 L86.0241012,11.0101852 C86.2281024,11.0101852 86.4213668,10.8930556 86.6146311,10.6481481 C86.7542109,10.4351852 86.8401062,10.0837963 86.8401062,9.60462963 Z M89.062646,1.73564815 C88.8908554,1.73564815 88.7190649,1.79953704 88.5150637,1.93796296 L88.5150637,6.43148148 C88.7512757,6.43148148 89.0304352,6.35694444 89.3203317,6.20787037 C89.6209651,6.0587963 89.7712818,5.89907407 89.7712818,5.7287037 L89.7712818,2.75787037 C89.7712818,2.07638889 89.5350699,1.73564815 89.062646,1.73564815 Z" id="Shape"></path>
                        <path d="M95.7087916,1.51203704 L95.7087916,1.22453704 L97.1582741,0.383333333 L97.7058563,0.383333333 L99.3056555,5.37731481 L99.5311306,5.28148148 L99.5311306,2.39583333 C99.5311306,2.12962963 99.4881829,1.91666667 99.3915508,1.76759259 C99.2949186,1.61851852 99.2090234,1.52268519 99.1123912,1.50138889 L98.9620745,1.46944444 L98.9620745,1.16064815 L100.304188,0.372685185 C100.379346,0.372685185 100.5404,0.479166667 100.776612,0.681481481 C101.012824,0.883796296 101.141667,1.08611111 101.141667,1.26712963 L101.141667,5.21759259 C101.141667,5.37731481 100.626295,5.63287037 99.5848151,6.00555556 L99.5848151,8.6037037 C99.5848151,8.9125 99.6170258,9.11481481 99.6921842,9.23194444 C99.7566056,9.34907407 99.9176592,9.40231481 100.143134,9.40231481 L100.143134,9.78564815 L97.27638,11.0208333 L97.050905,10.5736111 C97.4481706,10.4777778 97.6951194,10.2648148 97.7917516,9.91342593 C97.856173,9.66851852 97.8883838,9.37037037 97.8883838,9.01898148 L97.8883838,6.10138889 L96.4925858,1.95925926 C96.4496382,1.82083333 96.3744798,1.71435185 96.2885846,1.65046296 C96.1919524,1.58657407 96.1167941,1.54398148 96.0416357,1.53333333 C95.9664774,1.51203704 95.8591083,1.51203704 95.7087916,1.51203704 Z" id="Path"></path>
                    </g>
                </g>
            </g>
        </g>
    </g>
</svg>